/* XPM */
static char *close_active[] = {
/* columns rows colors chars-per-pixel */
"24 22 3 1",
"  c None",
"o c #FFFFFF s active_text_color",
". c #C0C0FF s active_color_1",
/* pixels */
"........................",
"........................",
"........................",
"........................",
"........................",
"........................",
".......ooo....ooo.......",
"........ooo..ooo........",
".........oooooo.........",
"..........oooo..........",
"..........oooo..........",
".........oooooo.........",
"........ooo..ooo........",
".......ooo....ooo.......",
"........................",
"........................",
"........................",
"........................",
"........................",
"........................",
"........................",
"........................"
};
