/* XPM */
static char *shade_active[] = {
/* columns rows colors chars-per-pixel */
"24 22 2 1 ",
". c #C0C0FF s active_color_1",
"@ c #FFFFFF s active_text_color",
/* pixels */
"........................",
"........................",
"........................",
"........................",
"........................",
"........................",
"........................",
"...........@@...........",
"...........@@...........",
"...........@@...........",
"...........@@...........",
"........@@.@@.@@........",
".........@@@@@@.........",
"..........@@@@..........",
"...........@@...........",
"........................",
"........................",
"........................",
"........................",
"........................",
"........................",
"........................"
};
